<svg width="349" height="153" viewBox="0 0 349 153" fill="none" xmlns="http://www.w3.org/2000/svg">
<rect width="150.71" height="349.001" rx="10" transform="matrix(0 -1 0.999997 -0.00242562 0 152.503)" fill="black"/>
<mask id="mask0_766_423" style="mask-type:alpha" maskUnits="userSpaceOnUse" x="0" y="0" width="349" height="153">
<rect width="150.71" height="349.001" rx="10" transform="matrix(0 -1 0.999997 -0.00242562 0 152.503)" fill="#0F172A"/>
</mask>
<g mask="url(#mask0_766_423)">
<path d="M0 11.9232L0 142.503C0 148.026 4.47714 152.492 9.99997 152.479L339 151.681C344.523 151.667 349 147.179 349 141.656V11.0766C349 5.55377 344.523 1.08747 339 1.10087L9.99997 1.8989C4.47714 1.9123 0 6.40033 0 11.9232Z" fill="url(#paint0_radial_766_423)"/>
<path opacity="0.1" d="M0.0413002 130.602C19.3414 137.622 32.2442 147.861 37.6363 158.622C43.0317 169.391 40.8449 180.459 30.6538 189.507C20.4627 198.554 3.6899 204.318 -15.7783 206.044C-35.2348 207.768 -57.0011 205.398 -76.3013 198.379C-95.6014 191.36 -108.504 181.121 -113.896 170.359C-119.292 159.591 -117.105 148.522 -106.914 139.475C-96.7226 130.427 -79.9499 124.663 -60.4817 122.938C-41.0252 121.213 -19.2588 123.583 0.0413002 130.602Z" stroke="white" stroke-width="7"/>
<path d="M381.168 -47.0736C422.99 -47.175 455.327 -20.9805 455.327 9.72185C455.327 40.4242 422.99 66.7756 381.168 66.8771C339.346 66.9785 307.01 40.784 307.01 10.0816C307.01 -20.6208 339.346 -46.9722 381.168 -47.0736Z" stroke="white" stroke-width="7"/>
</g>
<defs>
<radialGradient id="paint0_radial_766_423" cx="0" cy="0" r="1" gradientUnits="userSpaceOnUse" gradientTransform="translate(174.5 76.7898) rotate(-90) scale(84.4478 347.956)">
<stop stop-color="#240EB3"/>
<stop offset="1" stop-color="#3D97FF"/>
</radialGradient>
</defs>
</svg>
