<svg width="1201" height="274" viewBox="0 0 1201 274" fill="none" xmlns="http://www.w3.org/2000/svg">
<rect width="270.815" height="1200.88" rx="10" transform="matrix(0 -1 0.999997 -0.00242562 0 273.729)" fill="black"/>
<mask id="mask0_127_5305" style="mask-type:alpha" maskUnits="userSpaceOnUse" x="0" y="0" width="1201" height="274">
<rect width="270.815" height="1200.88" rx="10" transform="matrix(0 -1 0.999997 -0.00242562 0 273.729)" fill="#0F172A"/>
</mask>
<g mask="url(#mask0_127_5305)">
<path d="M0 13.1462L0 263.728C0 269.25 4.47715 273.717 9.99999 273.703L1190.88 270.839C1196.4 270.826 1200.88 266.338 1200.88 260.815V10.2333C1200.88 4.71045 1196.4 0.244165 1190.88 0.257562L9.99997 3.12192C4.47714 3.13532 0 7.62335 0 13.1462Z" fill="url(#paint0_radial_127_5305)"/>
<path opacity="0.1" d="M5.98493 231.663C73.9363 244.49 119.694 263.32 138.9 283.316C158.131 303.337 150.588 324.28 113.351 341.588C76.1134 358.895 15.2097 369.765 -54.1816 373.058C-123.482 376.346 -200.431 372.013 -268.383 359.185C-336.334 346.358 -382.092 327.528 -401.298 307.533C-420.529 287.511 -412.986 266.568 -375.749 249.261C-338.511 231.953 -277.607 221.083 -208.216 217.791C-138.915 214.503 -61.9664 218.836 5.98493 231.663Z" stroke="white" stroke-width="7"/>
<path d="M1311.57 -89.2049C1385.02 -89.383 1451.36 -77.4298 1499.2 -58.0891C1523.13 -48.4152 1542.26 -36.9616 1555.36 -24.4025C1568.44 -11.8527 1575.28 1.5719 1575.28 15.3254C1575.28 29.0789 1568.44 42.5367 1555.36 55.15C1542.26 67.7726 1523.13 79.3191 1499.2 89.1091C1451.36 108.682 1385.02 120.957 1311.57 121.135C1238.12 121.313 1171.78 109.36 1123.94 90.0193C1100.01 80.3454 1080.87 68.8918 1067.78 56.3327C1054.69 43.7828 1047.85 30.3583 1047.85 16.6048C1047.85 2.85125 1054.69 -10.6065 1067.78 -23.2198C1080.87 -35.8424 1100.01 -47.3889 1123.94 -57.1789C1171.78 -76.7516 1238.12 -89.0267 1311.57 -89.2049Z" stroke="white" stroke-width="7"/>
</g>
<defs>
<radialGradient id="paint0_radial_127_5305" cx="0" cy="0" r="1" gradientUnits="userSpaceOnUse" gradientTransform="translate(600.438 136.98) rotate(-90) scale(151.747 1197.28)">
<stop stop-color="#240EB3"/>
<stop offset="1" stop-color="#3D97FF"/>
</radialGradient>
</defs>
</svg>
