<svg width="151" height="151" viewBox="0 0 151 151" fill="none" xmlns="http://www.w3.org/2000/svg">
<path d="M75.5 150.312C116.818 150.312 150.312 116.818 150.312 75.5C150.312 34.1822 116.818 0.6875 75.5 0.6875C34.1822 0.6875 0.6875 34.1822 0.6875 75.5C0.6875 116.818 34.1822 150.312 75.5 150.312Z" fill="url(#paint0_linear_828_7309)"/>
<path d="M88.5751 36.245C90.1921 33.4226 89.2254 29.8177 86.4162 28.1932C83.607 26.5688 80.0187 27.54 78.4017 30.3623L75.5818 35.2852L72.7613 30.3623C71.1443 27.54 67.556 26.5688 64.7468 28.1932C61.9376 29.8177 60.9709 33.4226 62.5879 36.245L68.8096 47.1055L49.1297 81.4578H33.2753C30.0339 81.4578 27.4062 84.0976 27.4062 87.3541C27.4062 90.6105 30.0339 93.2503 33.2753 93.2503H88.4981C88.9823 91.9721 89.4921 89.7791 88.9497 87.7634C88.1348 84.7335 85.1188 81.4578 80.0646 81.4578H62.6734L88.5751 36.245Z" fill="white"/>
<path d="M52.1821 99.7706C51.1807 98.6532 48.9374 96.8679 46.9698 96.2806C43.9704 95.3844 41.6962 95.9466 40.5489 96.4361L36.1771 104.068C34.5602 106.89 35.5269 110.494 38.3362 112.119C41.1455 113.743 44.7334 112.772 46.3505 109.95L52.1821 99.7706Z" fill="white"/>
<path d="M108.789 93.2498H117.725C120.966 93.2498 123.594 90.61 123.594 87.3536C123.594 84.0971 120.966 81.4573 117.725 81.4573H102.033L84.3571 50.6035C83.0442 51.8572 80.5267 55.0597 80.1463 58.6907C79.6573 63.3585 80.3905 67.2894 82.5916 71.1385C89.9911 84.0794 97.4023 97.0145 104.812 109.95C106.43 112.772 110.017 113.743 112.827 112.119C115.636 110.494 116.603 106.889 114.986 104.067L108.789 93.2498Z" fill="white"/>
<defs>
<linearGradient id="paint0_linear_828_7309" x1="75.5" y1="0.6875" x2="75.5" y2="150.312" gradientUnits="userSpaceOnUse">
<stop stop-color="#2AC9FA"/>
<stop offset="1" stop-color="#1F65EB"/>
</linearGradient>
</defs>
</svg>
