<svg width="35" height="35" viewBox="0 0 35 35" fill="none" xmlns="http://www.w3.org/2000/svg">
<rect width="35" height="35" rx="4" fill="#332C3D"/>
<path d="M26.1635 21.2988C16.1635 31.2988 7.33015 23.1322 4.16349 17.7988C2.96349 23.3988 8.66349 28.7988 11.6635 30.7988C21.2635 35.5988 28.6635 28.4655 31.1635 24.2988L26.1635 21.2988Z" fill="#00C252"/>
<path fill-rule="evenodd" clip-rule="evenodd" d="M4.66357 14.7992C5.49691 9.63252 10.4636 0.199183 23.6636 3.79918C30.1636 6.29892 35.1636 13.7989 24.1636 20.2989C19.1636 22.2989 9.46357 21.5994 4.66357 14.7992ZM10.7196 13.7596C10.8755 11.7465 12.8114 7.86633 19.3074 8.44995C22.5405 9.01364 25.2903 11.5668 20.3246 14.6908C18.0225 15.748 13.3406 16.0586 10.7196 13.7596Z" fill="#D9D9D9"/>
</svg>
