<svg width="431" height="346" viewBox="0 0 431 346" fill="none" xmlns="http://www.w3.org/2000/svg">
<path d="M315.811 15.9336H348.114" stroke="#3789FF" stroke-width="3" stroke-miterlimit="10" stroke-linecap="round"/>
<path d="M315.811 25.2422H348.114" stroke="#3789FF" stroke-width="3" stroke-miterlimit="10" stroke-linecap="round"/>
<path d="M315.811 34.5527H348.114" stroke="#3789FF" stroke-width="3" stroke-miterlimit="10" stroke-linecap="round"/>
<path d="M15.2949 192.754H47.5979" stroke="#3789FF" stroke-width="3" stroke-miterlimit="10" stroke-linecap="round"/>
<path d="M15.2949 202.066H47.5979" stroke="#3789FF" stroke-width="3" stroke-miterlimit="10" stroke-linecap="round"/>
<path d="M15.2949 211.375H47.5979" stroke="#3789FF" stroke-width="3" stroke-miterlimit="10" stroke-linecap="round"/>
<path d="M377.783 259.148H410.086" stroke="#3789FF" stroke-width="3" stroke-miterlimit="10" stroke-linecap="round"/>
<path d="M377.783 268.461H410.086" stroke="#3789FF" stroke-width="3" stroke-miterlimit="10" stroke-linecap="round"/>
<path d="M377.783 277.77H410.086" stroke="#3789FF" stroke-width="3" stroke-miterlimit="10" stroke-linecap="round"/>
<path d="M416.719 213.298C424.345 213.298 430.526 207.116 430.526 199.491C430.526 191.865 424.345 185.684 416.719 185.684C409.094 185.684 402.912 191.865 402.912 199.491C402.912 207.116 409.094 213.298 416.719 213.298Z" fill="#B9D4DB"/>
<path d="M380.284 216.613C384.238 216.613 387.443 213.408 387.443 209.454C387.443 205.5 384.238 202.295 380.284 202.295C376.33 202.295 373.125 205.5 373.125 209.454C373.125 213.408 376.33 216.613 380.284 216.613Z" fill="#B9D4DB"/>
<path d="M398.462 175.933C404.111 175.933 408.69 171.353 408.69 165.705C408.69 160.056 404.111 155.477 398.462 155.477C392.814 155.477 388.234 160.056 388.234 165.705C388.234 171.353 392.814 175.933 398.462 175.933Z" fill="#B9D4DB"/>
<path d="M102.535 305.094C111.608 305.094 118.963 297.739 118.963 288.666C118.963 279.593 111.608 272.238 102.535 272.238C93.4625 272.238 86.1074 279.593 86.1074 288.666C86.1074 297.739 93.4625 305.094 102.535 305.094Z" fill="#B9D4DB"/>
<path d="M71.1429 285.524C75.8688 285.524 79.6999 281.693 79.6999 276.967C79.6999 272.241 75.8688 268.41 71.1429 268.41C66.417 268.41 62.5859 272.241 62.5859 276.967C62.5859 281.693 66.417 285.524 71.1429 285.524Z" fill="#B9D4DB"/>
<path d="M79.0043 252.815C81.7304 252.815 83.9404 250.605 83.9404 247.879C83.9404 245.153 81.7304 242.943 79.0043 242.943C76.2783 242.943 74.0684 245.153 74.0684 247.879C74.0684 250.605 76.2783 252.815 79.0043 252.815Z" fill="#B9D4DB"/>
<path d="M106.327 263.205C112.862 263.205 118.16 257.907 118.16 251.372C118.16 244.837 112.862 239.539 106.327 239.539C99.7919 239.539 94.4941 244.837 94.4941 251.372C94.4941 257.907 99.7919 263.205 106.327 263.205Z" fill="#B9D4DB"/>
<path d="M114.565 58.481C123.638 58.481 130.993 51.1259 130.993 42.053C130.993 32.9801 123.638 25.625 114.565 25.625C105.492 25.625 98.1367 32.9801 98.1367 42.053C98.1367 51.1259 105.492 58.481 114.565 58.481Z" fill="#B9D4DB"/>
<path d="M115.233 17.114C119.959 17.114 123.79 13.2829 123.79 8.557C123.79 3.8311 119.959 0 115.233 0C110.507 0 106.676 3.8311 106.676 8.557C106.676 13.2829 110.507 17.114 115.233 17.114Z" fill="#B9D4DB"/>
<path d="M172.228 20.9643C176.318 20.9643 179.634 17.6486 179.634 13.5583C179.634 9.46813 176.318 6.15234 172.228 6.15234C168.138 6.15234 164.822 9.46813 164.822 13.5583C164.822 17.6486 168.138 20.9643 172.228 20.9643Z" fill="#B9D4DB"/>
<path d="M145.284 11.2958C148.01 11.2958 150.22 9.0859 150.22 6.35983C150.22 3.63375 148.01 1.42383 145.284 1.42383C142.558 1.42383 140.348 3.63375 140.348 6.35983C140.348 9.0859 142.558 11.2958 145.284 11.2958Z" fill="#B9D4DB"/>
<path d="M151.02 45.1348C157.556 45.1348 162.853 39.8369 162.853 33.3018C162.853 26.7666 157.556 21.4688 151.02 21.4688C144.485 21.4688 139.188 26.7666 139.188 33.3018C139.188 39.8369 144.485 45.1348 151.02 45.1348Z" fill="#B9D4DB"/>
<path d="M377 132.237H98.7639L89.6914 109.236H377C377.358 109.236 377.712 109.307 378.042 109.444C378.372 109.58 378.672 109.781 378.925 110.034C379.178 110.286 379.378 110.586 379.515 110.917C379.652 111.247 379.722 111.601 379.722 111.958V129.515C379.722 129.872 379.652 130.226 379.515 130.556C379.378 130.887 379.178 131.187 378.925 131.439C378.672 131.692 378.372 131.893 378.042 132.029C377.712 132.166 377.358 132.237 377 132.237Z" fill="#3789FF"/>
<path d="M336.465 253.082H147.269C146.346 253.082 145.444 252.801 144.686 252.275C143.927 251.749 143.346 251.005 143.022 250.14L98.7637 132.236H367.311L340.89 249.543C340.664 250.548 340.103 251.445 339.298 252.089C338.494 252.732 337.495 253.082 336.465 253.082Z" fill="#F9A200"/>
<path d="M353.705 192.662C334.35 193.904 314.995 194.553 295.64 194.994C285.963 195.271 276.285 195.332 266.608 195.495L237.575 195.661C218.22 195.678 198.865 195.459 179.51 195.003C160.155 194.564 140.8 193.911 121.445 192.662C140.8 191.413 160.155 190.761 179.51 190.321C198.865 189.887 218.22 189.668 237.575 189.664L266.608 189.83C276.285 189.992 285.963 190.054 295.64 190.33C314.995 190.771 334.35 191.421 353.705 192.662Z" fill="#3789FF"/>
<path d="M315.845 132.236C314.743 142.782 313.058 153.197 311.197 163.572C309.313 173.942 307.21 184.262 304.889 194.533C302.58 204.808 300.058 215.034 297.323 225.212C295.943 230.298 294.514 235.373 292.988 240.427C292.199 242.947 291.447 245.477 290.627 247.99L289.995 249.9C289.747 250.601 289.343 251.237 288.813 251.759C288.317 252.251 287.716 252.625 287.057 252.854C286.397 253.083 285.694 253.161 284.999 253.083C285.626 253.008 286.23 252.8 286.768 252.47C287.307 252.141 287.768 251.699 288.119 251.174C288.448 250.691 288.664 250.141 288.752 249.564L289.004 247.625C289.341 245.002 289.746 242.395 290.114 239.779C290.902 234.56 291.787 229.362 292.72 224.175C294.605 213.806 296.711 203.486 299.037 193.215C301.354 182.943 303.879 172.718 306.611 162.539C309.378 152.368 312.32 142.237 315.845 132.236ZM207.728 253.083C207.005 253.161 206.275 253.07 205.594 252.817C204.913 252.564 204.3 252.155 203.804 251.625C203.317 251.065 202.926 250.429 202.648 249.742L201.751 247.885C200.557 245.409 199.431 242.907 198.267 240.419C195.989 235.425 193.804 230.395 191.664 225.349C187.403 215.25 183.351 205.072 179.51 194.815C175.656 184.562 172.007 174.233 168.562 163.828C165.146 153.411 161.902 142.929 159.223 132.236C164.242 142.051 168.696 152.078 172.978 162.17C177.239 172.269 181.288 182.448 185.125 192.707C188.971 202.962 192.618 213.292 196.066 223.697C197.775 228.905 199.439 234.13 201.01 239.389C201.771 242.028 202.569 244.653 203.299 247.304L203.846 249.292C203.971 249.916 204.196 250.516 204.513 251.068C204.863 251.624 205.334 252.093 205.891 252.442C206.447 252.791 207.075 253.01 207.728 253.083Z" fill="#3789FF"/>
<path d="M194.247 345.795C204.598 345.795 212.99 337.403 212.99 327.052C212.99 316.7 204.598 308.309 194.247 308.309C183.895 308.309 175.504 316.7 175.504 327.052C175.504 337.403 183.895 345.795 194.247 345.795Z" fill="#3789FF"/>
<path d="M194.247 335.702C199.025 335.702 202.898 331.829 202.898 327.051C202.898 322.274 199.025 318.4 194.247 318.4C189.469 318.4 185.596 322.274 185.596 327.051C185.596 331.829 189.469 335.702 194.247 335.702Z" fill="#DBE8EC"/>
<path d="M302.366 345.795C312.718 345.795 321.109 337.403 321.109 327.052C321.109 316.7 312.718 308.309 302.366 308.309C292.015 308.309 283.623 316.7 283.623 327.052C283.623 337.403 292.015 345.795 302.366 345.795Z" fill="#3789FF"/>
<path d="M302.366 335.702C307.144 335.702 311.017 331.829 311.017 327.051C311.017 322.274 307.144 318.4 302.366 318.4C297.588 318.4 293.715 322.274 293.715 327.051C293.715 331.829 297.588 335.702 302.366 335.702Z" fill="#DBE8EC"/>
<path d="M239.235 132.236C241.074 142.233 242.317 152.265 243.381 162.308C244.42 172.352 245.236 182.41 245.828 192.481C246.433 202.551 246.82 212.634 246.989 222.731C247.127 232.829 247.082 242.938 246.435 253.083C244.587 243.086 243.342 233.054 242.28 223.011C241.241 212.967 240.428 202.909 239.841 192.838C239.244 182.767 238.86 172.684 238.688 162.588C238.552 152.49 238.595 142.381 239.235 132.236Z" fill="#3789FF"/>
<path d="M334.08 298.794H164.527C163.92 298.794 163.327 298.61 162.827 298.266C162.327 297.922 161.943 297.435 161.726 296.868L63.5274 40.8906H11.5137C10.718 40.8906 9.95497 40.5746 9.39236 40.0119C8.82975 39.4493 8.51367 38.6863 8.51367 37.8906C8.51367 37.095 8.82975 36.3319 9.39236 35.7693C9.95497 35.2067 10.718 34.8906 11.5137 34.8906H65.5896C66.1965 34.8907 66.7891 35.0747 67.2892 35.4186C67.7892 35.7624 68.1733 36.2498 68.3906 36.8164L166.589 292.794H334.08C334.876 292.794 335.639 293.11 336.202 293.673C336.764 294.235 337.08 294.998 337.08 295.794C337.08 296.59 336.764 297.353 336.202 297.915C335.639 298.478 334.876 298.794 334.08 298.794Z" fill="#3789FF"/>
<path d="M37.6 29.2422H2C0.89543 29.2422 0 30.1376 0 31.2422V45.6022C0 46.7068 0.89543 47.6022 2 47.6022H37.6C38.7046 47.6022 39.6 46.7068 39.6 45.6022V31.2422C39.6 30.1376 38.7046 29.2422 37.6 29.2422Z" fill="#3789FF"/>
</svg>
