<svg width="20" height="41" viewBox="0 0 20 41" fill="none" xmlns="http://www.w3.org/2000/svg">
<path fill-rule="evenodd" clip-rule="evenodd" d="M4.1901 20.65V40.46C4.19009 40.5278 4.2036 40.595 4.22986 40.6575C4.25611 40.7201 4.29457 40.7767 4.34299 40.8242C4.39142 40.8717 4.44883 40.9091 4.51186 40.9341C4.5749 40.9591 4.64229 40.9713 4.7101 40.97H12.0601C12.1279 40.9713 12.1953 40.9591 12.2583 40.9341C12.3214 40.9091 12.3788 40.8717 12.4272 40.8242C12.4756 40.7767 12.5141 40.7201 12.5403 40.6575C12.5666 40.595 12.5801 40.5278 12.5801 40.46V20.33H17.9101C18.0407 20.3281 18.166 20.2781 18.2619 20.1895C18.3579 20.1009 18.4178 19.98 18.4301 19.85L18.9401 13.79C18.9456 13.7184 18.9363 13.6465 18.9126 13.5787C18.889 13.5109 18.8515 13.4488 18.8027 13.3962C18.7538 13.3436 18.6946 13.3016 18.6288 13.273C18.5629 13.2444 18.4919 13.2298 18.4201 13.23H12.5801V8.92001C12.5827 8.43813 12.7753 7.97673 13.1161 7.63598C13.4568 7.29523 13.9182 7.10263 14.4001 7.10001H18.5101C18.648 7.10001 18.7803 7.04523 18.8778 6.94771C18.9753 6.85019 19.0301 6.71792 19.0301 6.58001V0.520011C19.0301 0.382098 18.9753 0.249831 18.8778 0.152312C18.7803 0.0547935 18.648 6.79404e-06 18.5101 6.79404e-06H11.5701C10.6006 -0.0013096 9.64032 0.188683 8.74434 0.559096C7.84836 0.92951 7.03427 1.47306 6.34872 2.15862C5.66316 2.84418 5.1196 3.65827 4.74919 4.55425C4.37878 5.45023 4.18878 6.41049 4.1901 7.38001V13.23H0.5101C0.37484 13.23 0.245118 13.2837 0.149474 13.3794C0.0538304 13.475 9.80672e-05 13.6048 9.80672e-05 13.74V19.81C-0.00123182 19.8778 0.0109758 19.9452 0.0360096 20.0082C0.0610434 20.0713 0.0984049 20.1287 0.145896 20.1771C0.193387 20.2255 0.250053 20.264 0.31259 20.2903C0.375127 20.3165 0.442276 20.33 0.5101 20.33H4.1901V20.65Z" fill="white"/>
</svg>
