<svg width="157" height="171" viewBox="0 0 157 171" fill="none" xmlns="http://www.w3.org/2000/svg">
<path d="M120.705 58.6553C100.841 47.5447 68.9572 29.7035 19.5033 2.01314C16.1692 -0.188823 12.333 -0.477386 9.01855 0.64447L93.8675 85.4934L120.705 58.6553Z" fill="#32BBFF"/>
<path d="M9.01857 0.644531C8.39736 0.854942 7.79284 1.10877 7.21471 1.41537C3.55457 3.39523 0.86499 7.205 0.86499 12.0234V158.963C0.86499 163.782 3.55424 167.592 7.21471 169.571C7.79184 169.877 8.39602 170.132 9.01656 170.344L93.8675 85.4934L9.01857 0.644531Z" fill="#32BBFF"/>
<path d="M93.8675 85.4941L9.0166 170.345C12.3321 171.475 16.1682 171.208 19.5034 168.974C67.463 142.119 98.9872 124.489 119.082 113.284C119.641 112.969 120.189 112.662 120.731 112.358L93.8675 85.4941Z" fill="#32BBFF"/>
<path d="M0.86499 85.4941V158.964C0.86499 163.783 3.55424 167.592 7.21471 169.572C7.79184 169.878 8.39602 170.133 9.01656 170.345L93.8675 85.4941H0.86499Z" fill="#2C9FD9"/>
<path d="M19.5035 2.01323C15.5441 -0.601203 10.875 -0.526725 7.21484 1.41573L92.5798 86.781L120.705 58.6554C100.841 47.5447 68.9573 29.7036 19.5035 2.01323Z" fill="#29CC5E"/>
<path d="M92.5804 84.207L7.21484 169.572C10.8753 171.514 15.5441 171.626 19.5035 168.974C67.4631 142.119 98.9873 124.489 119.082 113.284C119.641 112.969 120.189 112.662 120.731 112.358L92.5804 84.207Z" fill="#D93F21"/>
<path d="M156.135 85.4943C156.135 81.423 154.081 77.3143 150.009 75.0359C150.009 75.0359 142.394 70.7872 119.055 57.7324L91.2927 85.4943L119.082 113.283C142.165 100.323 150.009 95.9523 150.009 95.9523C154.081 93.6742 156.135 89.5655 156.135 85.4943Z" fill="#FFD500"/>
<path d="M150.009 95.9526C154.081 93.6741 156.135 89.5654 156.135 85.4941H91.2927L119.082 113.283C142.166 100.323 150.009 95.9526 150.009 95.9526Z" fill="#FFAA00"/>
</svg>
