<svg width="43" height="41" viewBox="0 0 43 41" fill="none" xmlns="http://www.w3.org/2000/svg">
<path d="M37.0525 0H5.9475C2.66279 0 0 2.66279 0 5.9475V34.824C0 38.1087 2.66279 40.7715 5.9475 40.7715H37.0525C40.3372 40.7715 43 38.1087 43 34.824V5.9475C43 2.66279 40.3372 0 37.0525 0Z" fill="url(#paint0_linear_792_2492)"/>
<path d="M29.7082 14.0521C30.7112 14.0521 31.5243 13.239 31.5243 12.236C31.5243 11.233 30.7112 10.4199 29.7082 10.4199C28.7052 10.4199 27.8921 11.233 27.8921 12.236C27.8921 13.239 28.7052 14.0521 29.7082 14.0521Z" fill="white"/>
<path d="M21.6266 12.7481C20.1142 12.7424 18.6341 13.1856 17.3738 14.0217C16.1135 14.8577 15.1297 16.049 14.547 17.4446C13.9642 18.8403 13.8088 20.3774 14.1003 21.8615C14.3919 23.3455 15.1173 24.7096 16.1847 25.7811C17.2521 26.8525 18.6134 27.5831 20.0963 27.8803C21.5793 28.1774 23.117 28.0278 24.5148 27.4504C25.9126 26.873 27.1077 25.8937 27.9485 24.6366C28.7893 23.3795 29.2382 21.9011 29.2382 20.3887C29.2363 18.3679 28.4347 16.4299 27.0085 14.9983C25.5822 13.5666 23.6474 12.7577 21.6266 12.7481ZM21.6266 25.2798C20.6571 25.2813 19.7091 24.995 18.9025 24.4573C18.0958 23.9196 17.4669 23.1547 17.0952 22.2593C16.7236 21.364 16.626 20.3785 16.8147 19.4276C17.0035 18.4767 17.4702 17.6033 18.1557 16.9178C18.8411 16.2323 19.7146 15.7656 20.6655 15.5769C21.6164 15.3881 22.6018 15.4857 23.4972 15.8573C24.3925 16.229 25.1575 16.8579 25.6952 17.6646C26.2329 18.4712 26.5191 19.4193 26.5177 20.3887C26.5139 21.6847 25.9973 22.9266 25.0809 23.843C24.1645 24.7595 22.9226 25.276 21.6266 25.2798Z" fill="white"/>
<path d="M27.6903 35.8865H15.3105C12.8414 35.8846 10.474 34.9029 8.72806 33.157C6.98215 31.4111 6.00045 29.0436 5.99854 26.5746V14.1948C6.00045 11.7257 6.98215 9.35826 8.72806 7.61234C10.474 5.86642 12.8414 4.88473 15.3105 4.88281H27.6903C30.16 4.88473 32.5282 5.86619 34.2753 7.6119C36.0223 9.35761 37.0056 11.725 37.0095 14.1948V26.5746C37.0056 29.0443 36.0223 31.4117 34.2753 33.1574C32.5282 34.9031 30.16 35.8846 27.6903 35.8865ZM15.3105 7.79868C13.6147 7.8006 11.989 8.47508 10.7899 9.67417C9.59081 10.8733 8.91632 12.499 8.9144 14.1948V26.5746C8.91632 28.2703 9.59081 29.8961 10.7899 31.0952C11.989 32.2942 13.6147 32.9687 15.3105 32.9706H27.6903C28.5302 32.9706 29.3619 32.8052 30.1379 32.4838C30.914 32.1623 31.6191 31.6912 32.213 31.0973C32.8069 30.5033 33.2781 29.7982 33.5995 29.0222C33.9209 28.2462 34.0864 27.4145 34.0864 26.5746V14.1948C34.0864 12.4984 33.4125 10.8716 32.213 9.67206C31.0135 8.47255 29.3866 7.79868 27.6903 7.79868H15.3105Z" fill="white"/>
<defs>
<linearGradient id="paint0_linear_792_2492" x1="2.40215" y1="38.1595" x2="51.3858" y2="-7.44523" gradientUnits="userSpaceOnUse">
<stop stop-color="#FBE18A"/>
<stop offset="0.21" stop-color="#FCBB45"/>
<stop offset="0.38" stop-color="#F75274"/>
<stop offset="0.52" stop-color="#D53692"/>
<stop offset="0.74" stop-color="#8F39CE"/>
<stop offset="1" stop-color="#5B4FE9"/>
</linearGradient>
</defs>
</svg>
