<svg width="42" height="31" viewBox="0 0 42 31" fill="none" xmlns="http://www.w3.org/2000/svg">
<path d="M26.4722 25.263L25.2913 25.949C24.8291 25.2466 24.1723 24.9187 23.3471 24.9402C22.7124 24.9565 22.1554 25.1643 21.7173 25.6439C20.8556 26.5873 20.9592 28.2602 21.91 29.0824C22.672 29.7413 24.3986 29.9317 25.29 28.5999C25.482 28.7097 25.6792 28.8211 25.8767 28.9344C26.0742 29.0478 26.2727 29.165 26.4689 29.2794C25.8171 30.5694 24.1085 31.2508 22.5094 30.8774C20.851 30.49 19.7506 29.0683 19.7389 27.2965C19.7265 25.5606 20.8054 24.0915 22.3872 23.6904C24.025 23.2749 25.7594 23.9302 26.4722 25.263Z" fill="white"/>
<path d="M9.23377 25.7532H10.5095V30.8218H9.23442C9.22399 30.6618 9.21486 30.5171 9.20183 30.3099C8.64772 30.8401 8.01637 31.0436 7.2905 30.9633C6.56463 30.8829 6.01672 30.504 5.5956 29.9277C4.82768 28.8742 4.94371 27.2889 5.85114 26.3494C6.75856 25.4099 7.90457 25.3583 9.19792 26.2328C9.2103 26.0753 9.22041 25.9362 9.23377 25.7532ZM7.79962 29.7059C8.62165 29.7085 9.20607 29.1333 9.21519 28.3127C9.22464 27.4745 8.63306 26.8655 7.80907 26.8659C6.99422 26.8659 6.42219 27.4506 6.42023 28.2849C6.41795 29.1261 6.97792 29.7036 7.79897 29.7059H7.79962Z" fill="white"/>
<path d="M30.9393 26.2349C30.9494 26.0628 30.9576 25.9298 30.967 25.7668H32.2473V30.8233H30.9843C30.9677 30.679 30.9517 30.5382 30.9282 30.3333C30.3637 30.8609 29.7174 31.052 28.9837 30.954C28.2281 30.8528 27.6799 30.4379 27.2738 29.8205C26.5524 28.7229 26.7412 27.1509 27.6874 26.2578C28.5971 25.399 29.7614 25.3797 30.9393 26.2349ZM29.5378 29.7065C30.3673 29.7117 30.9432 29.1472 30.9523 28.3201C30.9621 27.4658 30.3898 26.8677 29.5609 26.8657C28.7483 26.8657 28.1672 27.4508 28.162 28.2783C28.1577 29.1132 28.7242 29.7009 29.5391 29.7065H29.5378Z" fill="white"/>
<path d="M38.591 30.8218H37.2944V23.7266H38.5826V26.093C38.9998 25.9273 39.3811 25.701 39.7885 25.6275C40.8528 25.4315 41.858 26.0897 41.9466 27.1468C42.0483 28.3555 41.9701 29.5798 41.9701 30.8212H40.7136C40.7067 30.683 40.695 30.553 40.6947 30.4233C40.6947 29.5808 40.6999 28.7387 40.6914 27.8965C40.6849 27.2363 40.3612 26.8678 39.7846 26.8338C39.1288 26.7953 38.6543 27.1605 38.6207 27.8197C38.5767 28.672 38.5969 29.5279 38.5901 30.3821C38.5901 30.5242 38.591 30.6667 38.591 30.8218Z" fill="white"/>
<path d="M36.7199 26.6964L35.657 27.2844C35.582 27.1981 35.5172 27.1129 35.4416 27.0387C35.1808 26.7849 34.8699 26.6996 34.5371 26.8372C34.4132 26.8885 34.2763 27.04 34.2545 27.1638C34.2379 27.2596 34.3695 27.4252 34.4771 27.4905C34.6512 27.5947 34.8575 27.6473 35.0537 27.7113C35.3197 27.7982 35.5941 27.8603 35.8555 27.959C36.4579 28.1876 36.8161 28.6156 36.8448 29.2748C36.8728 29.9213 36.598 30.4041 36.0201 30.7069C34.8686 31.3106 33.3383 30.9463 32.7496 29.9268C32.7261 29.886 32.7108 29.8402 32.6753 29.7602L33.7897 29.1222C34.0178 29.6491 34.4445 29.8445 34.9716 29.7537C35.1541 29.721 35.3953 29.5779 35.4605 29.4221C35.5716 29.1608 35.3086 29.0438 35.1019 28.9697C34.7242 28.8338 34.3353 28.7302 33.9579 28.5947C33.2265 28.3333 32.8663 27.8587 32.8757 27.2008C32.8862 26.488 33.2933 25.9617 34.0208 25.7203C35.0931 25.3658 36.2577 25.7765 36.7199 26.6964Z" fill="white"/>
<path d="M3.43348 23.7246H4.80244C4.81609 23.782 4.82524 23.8403 4.82982 23.8991C4.82982 25.5108 4.84318 27.123 4.82395 28.7338C4.81059 29.8771 4.09938 30.6984 2.98596 30.9189C1.64634 31.1841 0.484025 30.6837 0 29.606L1.18219 28.9281C1.50292 29.4541 1.96609 29.6612 2.55115 29.5815C3.14763 29.4995 3.4312 29.1787 3.4312 28.5688C3.43609 27.1034 3.4312 25.6379 3.43316 24.1725L3.43348 23.7246Z" fill="white"/>
<path d="M19.4254 30.8228H15.457C15.4195 30.358 15.3918 29.9467 15.7132 29.5397C16.3436 28.7364 16.9146 27.8857 17.5502 26.9992H15.5502V25.7578H19.3064C19.3497 26.189 19.4042 26.5911 19.0926 26.989C18.5212 27.7185 17.999 28.4868 17.4573 29.2398C17.3882 29.3355 17.3269 29.4358 17.2171 29.5991H19.4247L19.4254 30.8228Z" fill="white"/>
<path d="M15.1298 29.5867V30.8228H11.1664C11.1448 30.4092 11.0686 30.0166 11.3658 29.6246C12.007 28.7834 12.6064 27.9102 13.2654 26.991H11.2723V25.7637H15.0317C15.0842 26.2119 15.0995 26.6215 14.7794 27.024C14.2107 27.7394 13.698 28.4995 13.1631 29.2417C13.0943 29.3371 13.0327 29.4377 12.9349 29.5867H15.1298Z" fill="white"/>
<path d="M32.9916 2.53024C32.9916 2.53024 27.4653 -3.2025 18.8835 2.6168L18.3369 18.4064L18.9888 18.7915C18.9888 18.7915 25.0344 24.9258 32.8019 19.5951C32.8019 19.5951 32.9548 19.0839 31.6794 18.6478C31.6777 18.6494 19.7909 10.2001 32.9916 2.53024Z" fill="#FF0000"/>
<path d="M13.7067 0C13.7067 0 22.8389 1.6095 22.558 11.9137C22.558 11.9137 22.5068 20.8615 11.3341 21.8585C11.3341 21.8585 9.46388 22.2603 6.65914 20.7478C6.56887 20.6993 6.49055 20.6312 6.4299 20.5485C6.36925 20.4658 6.32781 20.3706 6.30859 20.2698C6.28938 20.169 6.29288 20.0651 6.31885 19.9658C6.34482 19.8665 6.3926 19.7743 6.45869 19.6959C6.79441 19.2971 7.5079 19.0191 8.42608 18.5973C8.42608 18.5973 12.9795 16.9101 13.0176 12.8068L13.0942 1.18745C13.0942 1.18745 12.9032 0.34529 13.7067 0Z" fill="#FFC200"/>
</svg>
