<svg width="40" height="40" viewBox="0 0 40 40" fill="none" xmlns="http://www.w3.org/2000/svg">
<path d="M3.27405 0H36.729C37.1589 -1.93815e-07 37.5844 0.0847134 37.9815 0.249288C38.3786 0.413863 38.7393 0.655074 39.0431 0.959139C39.3468 1.2632 39.5877 1.62415 39.7519 2.02136C39.9161 2.41857 40.0004 2.84425 40 3.27406V36.7291C40.0004 37.1587 39.9161 37.5842 39.7518 37.9813C39.5876 38.3783 39.3467 38.7391 39.0429 39.0429C38.7391 39.3467 38.3783 39.5876 37.9813 39.7519C37.5842 39.9161 37.1587 40.0004 36.729 40H3.27405C2.84425 40.0004 2.41857 39.9161 2.02136 39.7519C1.62416 39.5877 1.2632 39.3468 0.959136 39.0431C0.655072 38.7393 0.413858 38.3786 0.249283 37.9815C0.0847086 37.5845 -1.93815e-07 37.1589 0 36.7291V3.27406C0 2.40572 0.344944 1.57295 0.958948 0.958949C1.57295 0.344945 2.40572 0 3.27405 0Z" fill="black"/>
<path d="M10 25.3978L10.0798 25.6278C10.0675 25.603 10.0399 25.5221 10 25.3978ZM13.2065 20.1484C13.3476 18.9052 13.8201 18.209 14.7406 17.4942C16.0447 16.5276 17.671 17.0715 17.671 17.0715V13.8267C18.0661 13.8174 18.4613 13.8424 18.8523 13.9013V18.0785C18.8523 18.0785 17.226 17.5346 15.922 18.4981C15.0015 19.2129 14.5289 19.9091 14.3878 21.1554C14.3577 21.9821 14.5924 22.7965 15.0567 23.4771C14.9186 23.4025 14.7805 23.3155 14.6363 23.2222C13.4212 22.3613 13.2003 21.0653 13.2065 20.1484ZM25.572 7.82206C24.8701 7.02716 24.4004 6.04999 24.2158 5H25.3419C25.3419 5 25.1179 6.93317 26.7534 8.82905L26.7779 8.85392C26.3348 8.56257 25.9297 8.21589 25.572 7.82206ZM31 10.7653V14.8555C30.1569 14.8169 29.3189 14.7014 28.4962 14.5105C27.6351 14.2895 26.8089 13.9474 26.0415 13.4942L25.345 13.0373V21.4942C25.3174 22.3904 25.1507 23.2767 24.851 24.1204C24.1409 25.9791 22.7459 27.4857 20.9603 28.3224C19.9882 28.7706 18.9323 29.0016 17.8643 29C16.3799 28.9956 14.9285 28.5563 13.6851 27.735C13.2543 27.4333 12.8526 27.0909 12.4854 26.7125C13.7271 27.5374 15.1796 27.977 16.6645 27.9775C17.7357 27.9778 18.7942 27.7423 19.7667 27.2875C21.552 26.4502 22.9468 24.9437 23.6574 23.0855C23.9574 22.2418 24.1241 21.3555 24.1514 20.4592V12.0241C24.2066 12.0552 24.8632 12.4965 24.8632 12.4965C25.6253 12.9486 26.4465 13.2897 27.3026 13.5097C28.1253 13.7007 28.9633 13.8161 29.8064 13.8547V10.6503C30.196 10.7508 30.5987 10.7896 31 10.7653Z" fill="#EE1D52"/>
<path d="M30 10.6458V13.8543C29.1339 13.814 28.2731 13.6985 27.4275 13.5092C26.548 13.2874 25.7044 12.9452 24.9212 12.4926C24.9212 12.4926 24.2403 12.0511 24.1898 12.0231V20.4795C24.1618 21.376 23.9905 22.2626 23.6823 23.1065C22.9522 24.9654 21.5191 26.4722 19.6848 27.3098C18.6856 27.7648 17.5981 28.0003 16.4976 28C14.9724 27.996 13.4811 27.5565 12.2038 26.7347C11.9904 26.5202 11.7883 26.295 11.5985 26.06C11.1188 25.4335 10.7324 24.7425 10.4509 24.0081C10.1473 23.1283 9.99492 22.2047 10.0001 21.2753C10.0269 20.0625 10.3514 18.8741 10.9459 17.812C11.4133 16.989 12.0225 16.2526 12.746 15.6357C13.3852 15.1077 14.1085 14.6875 14.8866 14.3921C15.7302 14.0442 16.6331 13.8574 17.5474 13.8418V17.0814C17.5474 17.0814 15.8765 16.5342 14.5367 17.5011C13.5909 18.2161 13.1054 18.9125 12.9604 20.1592C12.9259 20.7523 13.0422 21.3445 13.2988 21.8821C13.5553 22.4196 13.944 22.8853 14.4295 23.2371C14.5777 23.3304 14.7195 23.4174 14.8614 23.492C15.0813 23.784 15.3474 24.039 15.6495 24.2475C16.8727 25.0434 17.891 25.0962 19.2025 24.5833C19.6318 24.3971 20.0168 24.1241 20.3323 23.7819C20.6478 23.4396 20.8869 23.0358 21.0341 22.5966C21.1916 22.0641 21.2546 21.5088 21.2201 20.9551V5H24.2655C24.4537 6.05141 24.9376 7.02954 25.6621 7.82292C26.0305 8.21462 26.4454 8.56117 26.8979 8.85509C27.7239 9.74832 28.8058 10.3728 30 10.6458Z" fill="white"/>
<path d="M15.2645 13.563C14.4652 13.8601 13.7224 14.2835 13.0664 14.8161C12.3228 15.4371 11.6972 16.1793 11.218 17.009C10.6058 18.0786 10.2725 19.2765 10.2468 20.4989C10.2425 21.4353 10.399 22.3658 10.7097 23.2526C10.9994 23.9923 11.3961 24.6884 11.8881 25.3202C12.083 25.557 12.2905 25.7839 12.5096 26C11.8032 25.5271 11.1728 24.956 10.6385 24.3052C10.1446 23.6791 9.74963 22.9855 9.4666 22.247C9.14831 21.3609 8.99061 20.4282 9.00043 19.4902C9.02844 18.2681 9.36165 17.0707 9.97161 16.0003C10.4508 15.1705 11.0764 14.4284 11.8201 13.8074C12.477 13.2744 13.2209 12.851 14.0214 12.5543C14.5206 12.3542 15.0404 12.2061 15.5721 12.1125C16.3743 11.9764 17.1937 11.9637 18 12.075V13.0148C17.0599 13.0286 16.1313 13.2169 15.2645 13.5693V13.563Z" fill="#69C9D0"/>
<path d="M24.3014 4.96028H21.2809V20.2088C21.3124 20.7383 21.2492 21.2692 21.094 21.7785C20.9473 22.1978 20.7106 22.5833 20.3991 22.9104C20.0876 23.2375 19.7081 23.499 19.2848 23.6783C17.9925 24.1748 16.9805 24.1183 15.7754 23.3572C15.4765 23.1605 15.2144 22.9173 15 22.6377C16.0276 23.161 16.9431 23.152 18.0828 22.715C18.5071 22.5372 18.8874 22.2761 19.1991 21.9488C19.5108 21.6215 19.7469 21.2353 19.892 20.8153C20.0476 20.306 20.1098 19.775 20.0758 19.2455V4H24.2329C24.2064 4.32157 24.2295 4.64512 24.3014 4.96028ZM30 9.51194V10.3592C29.5126 10.2494 29.0402 10.0858 28.5925 9.87167C27.9661 9.5532 27.3981 9.1395 26.9109 8.64679C27.0666 8.74193 27.2223 8.82815 27.3874 8.90842C28.1913 9.31591 29.0899 9.52347 30 9.51194Z" fill="#69C9D0"/>
<path d="M24.7162 34.5193C24.7158 34.6308 24.7327 34.7418 24.7666 34.8484C24.7666 34.8484 24.7666 34.8484 24.7666 34.8728C24.8489 35.1255 25.0122 35.3463 25.2329 35.503C25.4536 35.6598 25.7201 35.7443 25.9937 35.7443V36.9998C25.3644 36.9998 24.9113 37.0211 24.2223 36.628C23.8393 36.3985 23.5251 36.0759 23.3108 35.6923C23.0965 35.3087 22.9897 34.8775 23.0008 34.4415C23.0119 34.0055 23.1407 33.5799 23.3743 33.2071C23.6079 32.8342 23.9382 32.527 24.3324 32.3161C24.8489 32.0686 25.4258 31.9632 26 32.0114V33.2669C25.8316 33.2665 25.6647 33.2983 25.509 33.3604C25.3532 33.4226 25.2117 33.5139 25.0924 33.6291C24.9732 33.7443 24.8786 33.8811 24.814 34.0318C24.7495 34.1825 24.7162 34.344 24.7162 34.5071V34.5193Z" fill="#69C9D0"/>
<path d="M27.2843 34.5237C27.2852 34.6353 27.2672 34.7463 27.2308 34.8523C27.2308 34.8523 27.2308 34.8522 27.2308 34.8766C27.1489 35.1291 26.9856 35.3498 26.7647 35.5063C26.5439 35.6628 26.277 35.747 26.0031 35.7466V36.9998C26.6327 36.9998 27.0891 37.0211 27.7722 36.6287C28.1514 36.4083 28.4643 36.0957 28.6796 35.7221C28.895 35.3486 29.0054 34.927 28.9998 34.4994C29.0008 34.0531 28.8774 33.6147 28.6425 33.2304C28.4077 32.8461 28.0701 32.53 27.6652 32.3154C27.1493 32.0688 26.5734 31.9636 26 32.0112V33.2644C26.3398 33.2644 26.6656 33.3948 26.9059 33.627C27.1462 33.8592 27.2811 34.1741 27.2811 34.5024L27.2843 34.5237Z" fill="#EE1D52"/>
<path d="M6 31.0088H10.6744L10.2405 32.236H9.01605V36.9203H7.53127V32.236H6V31.0088ZM18.399 31.0088V32.236H19.9148V36.9203H21.4212V32.236H22.6456L23.0796 31.0088H18.399ZM11.6973 32.4012C11.8414 32.4012 11.9822 32.3605 12.102 32.2843C12.2218 32.2082 12.3152 32.0999 12.3703 31.9732C12.4255 31.8466 12.4399 31.7072 12.4118 31.5727C12.3837 31.4383 12.3143 31.3147 12.2124 31.2178C12.1105 31.1208 11.9807 31.0548 11.8394 31.0281C11.6981 31.0013 11.5517 31.015 11.4186 31.0675C11.2855 31.12 11.1717 31.2088 11.0917 31.3228C11.0116 31.4368 10.9689 31.5709 10.9689 31.708C10.9685 31.7986 10.9868 31.8884 11.0229 31.9723C11.059 32.0562 11.1121 32.1325 11.1791 32.1969C11.2462 32.2613 11.3259 32.3125 11.4138 32.3475C11.5016 32.3826 11.5959 32.4008 11.6911 32.4012H11.6973ZM10.9689 36.9174H12.4475V32.8908H10.9627L10.9689 36.9174ZM17.7604 32.3599H16.0215L14.5367 33.7729V31H13.0674V36.8997H14.5491V35.3628L15.0079 34.9617L16.4461 36.8997H18.027L15.9471 34.0708L17.7604 32.3599ZM31.9232 34.0767L33.7272 32.3599H31.9883L30.5035 33.7729V31H29.0342V36.8997H30.5159V35.3599L30.9808 34.9617L32.4191 36.8997H34L31.9232 34.0767ZM28.126 34.5133C28.1334 34.9995 27.9886 35.4769 27.7101 35.8847C27.4315 36.2924 27.0319 36.6121 26.5619 36.8031C26.0919 36.9941 25.5729 37.0477 25.0708 36.9571C24.5687 36.8666 24.1062 36.6359 23.7422 36.2946C23.3783 35.9532 23.1292 35.5165 23.0268 35.0401C22.9243 34.5636 22.9731 34.0689 23.1669 33.6189C23.3608 33.169 23.6908 32.784 24.1152 32.5131C24.5396 32.2421 25.0391 32.0974 25.5501 32.0973C26.2278 32.0958 26.8784 32.3503 27.3591 32.8049C27.8398 33.2596 28.1111 33.8772 28.1136 34.5221L28.126 34.5133ZM26.8117 34.5133C26.8111 34.2759 26.7366 34.0441 26.5976 33.8471C26.4586 33.65 26.2613 33.4966 26.0307 33.4062C25.8002 33.3158 25.5466 33.2924 25.3021 33.3391C25.0576 33.3857 24.833 33.5003 24.6569 33.6683C24.4808 33.8363 24.3609 34.0503 24.3125 34.2831C24.2641 34.5159 24.2893 34.7571 24.3848 34.9763C24.4804 35.1955 24.6421 35.3829 24.8495 35.5147C25.0569 35.6465 25.3007 35.7168 25.5501 35.7168C25.8815 35.7137 26.1983 35.5867 26.432 35.3631C26.6657 35.1396 26.7977 34.8375 26.7993 34.5221L26.8117 34.5133Z" fill="white"/>
</svg>
