<svg width="44" height="40" viewBox="0 0 44 40" fill="none" xmlns="http://www.w3.org/2000/svg">
<path d="M37.9854 0H6.0146C2.69283 0 0 3.65032 0 8.15322V31.8468C0 36.3497 2.69283 40 6.0146 40H37.9854C41.3072 40 44 36.3497 44 31.8468V8.15322C44 3.65032 41.3072 0 37.9854 0Z" fill="url(#paint0_linear_792_2494)"/>
<path d="M34 16.6982C33.9983 15.4517 33.4195 14.2567 32.3905 13.3757C31.3616 12.4948 29.9668 12 28.5125 12H14.4812C13.0275 12 11.6333 12.495 10.6054 13.3761C9.57748 14.2572 9 15.4522 9 16.6982V22.2964C9 23.543 9.57728 24.7385 10.605 25.6205C11.6328 26.5024 13.027 26.9986 14.4812 27H28.5125C29.9679 27 31.3636 26.5044 32.3928 25.6224C33.4219 24.7403 34 23.5439 34 22.2964V16.6982ZM25.75 19.9125L19.4563 22.5911C19.2125 22.7036 18.375 22.5536 18.375 22.3125V16.8321C18.375 16.5857 19.2187 16.4357 19.4625 16.5536L25.4875 19.3607C25.7375 19.4839 26.0062 19.8 25.75 19.9179V19.9125Z" fill="white"/>
<defs>
<linearGradient id="paint0_linear_792_2494" x1="5.38399" y1="-2.52419" x2="48.4198" y2="29.2288" gradientUnits="userSpaceOnUse">
<stop stop-color="#FF0000"/>
<stop offset="1" stop-color="#850000"/>
</linearGradient>
</defs>
</svg>
